<svg width="86" height="37" viewBox="0 0 86 37" fill="none" xmlns="http://www.w3.org/2000/svg">
<g filter="url(#filter0_d_15967_13)">
<path d="M30.5 1H5L8 2.5L11 4L13 5.5L15 8L16.5 10.5L17 12.5V14.5L16.5 16.5L19 16H21.5H25.5L29.5 16.5L32.5 17.5L35.5 18.5L38.5 20.5L40 21.5L41 23.5L43 27L44.5 23.5L46 21.5L47.5 20.5L50 18.5L53 17.5L57 16.5L60.5 16H64.5H66.5L69.5 16.5L69 14V12.5L69.5 10L70.5 8L72.5 6L75.5 4L78.5 2.5L80.5 1H55V2.5L54.5 4L53 6L51 6.5L48.5 7L47 7.5L46 7L45 2.5L44 5H43H42L41 2.5L40 7L38.5 7.5L36 7L33.5 6.5L32.5 5.5L31 3.5L30.5 1Z" fill="white"/>
<path d="M30.5 1H5L8 2.5L11 4L13 5.5L15 8L16.5 10.5L17 12.5V14.5L16.5 16.5L19 16H21.5H25.5L29.5 16.5L32.5 17.5L35.5 18.5L38.5 20.5L40 21.5L41 23.5L43 27L44.5 23.5L46 21.5L47.5 20.5L50 18.5L53 17.5L57 16.5L60.5 16H64.5H66.5L69.5 16.5L69 14V12.5L69.5 10L70.5 8L72.5 6L75.5 4L78.5 2.5L80.5 1H55V2.5L54.5 4L53 6L51 6.5L48.5 7L47 7.5L46 7L45 2.5L44 5H43H42L41 2.5L40 7L38.5 7.5L36 7L33.5 6.5L32.5 5.5L31 3.5L30.5 1Z" stroke="white"/>
</g>
<defs>
<filter id="filter0_d_15967_13" x="0.776367" y="0.5" width="85.2236" height="35.6199" filterUnits="userSpaceOnUse" color-interpolation-filters="sRGB">
<feFlood flood-opacity="0" result="BackgroundImageFix"/>
<feColorMatrix in="SourceAlpha" type="matrix" values="0 0 0 0 0 0 0 0 0 0 0 0 0 0 0 0 0 0 127 0" result="hardAlpha"/>
<feOffset dy="4"/>
<feGaussianBlur stdDeviation="2"/>
<feComposite in2="hardAlpha" operator="out"/>
<feColorMatrix type="matrix" values="0 0 0 0 0 0 0 0 0 0 0 0 0 0 0 0 0 0 0.25 0"/>
<feBlend mode="normal" in2="BackgroundImageFix" result="effect1_dropShadow_15967_13"/>
<feBlend mode="normal" in="SourceGraphic" in2="effect1_dropShadow_15967_13" result="shape"/>
</filter>
</defs>
</svg>
